<svg xmlns="http://www.w3.org/2000/svg" xmlns:xlink="http://www.w3.org/1999/xlink" width="32" height="32" viewBox="0 0 32 32"><defs><linearGradient id="a"><stop offset="0" stop-color="#000092"/><stop offset="1" stop-color="#ff00f3"/></linearGradient><linearGradient id="b" x1="1.782" x2="28" y1="16.001" y2="16.001" gradientUnits="userSpaceOnUse" xlink:href="#a"/></defs><path fill="url(#b)" d="M 17.529297 -0.001953125 A 0.50004997 0.50004997 0 0 0 17.029297 0.49804688 L 17.029297 4.4453125 C 16.737035 4.3222125 16.493144 4.0837844 16.169922 4.0839844 C 14.848381 4.0839844 13.767577 5.1676344 13.767578 6.4902344 C 13.767577 7.8129344 14.848412 8.8964844 16.169922 8.8964844 C 16.493647 8.8964844 16.737233 8.6570031 17.029297 8.5332031 L 17.029297 12.482422 A 0.50004997 0.50004997 0 0 0 17.529297 12.982422 L 22.179688 12.982422 A 0.50004997 0.50004997 0 0 0 22.515625 12.111328 C 22.516072 12.111728 22.503198 12.098891 22.492188 12.087891 C 22.464597 12.058891 22.437246 12.028141 22.410156 11.994141 L 22.412109 11.994141 C 22.382559 11.956141 22.355068 11.920159 22.330078 11.880859 A 0.50004997 0.50004997 0 0 0 22.328125 11.880859 C 22.304365 11.843859 22.281056 11.805872 22.259766 11.763672 C 22.238456 11.721672 22.219645 11.677666 22.203125 11.634766 A 0.50004997 0.50004997 0 0 0 22.201172 11.634766 C 22.184732 11.592766 22.170793 11.548806 22.158203 11.503906 C 22.145703 11.458906 22.134873 11.412888 22.126953 11.367188 C 22.118953 11.321187 22.112815 11.276269 22.109375 11.230469 C 22.107275 11.197469 22.105369 11.164812 22.105469 11.132812 C 22.105483 11.084812 22.108581 11.038787 22.113281 10.992188 C 22.117981 10.946187 22.125406 10.899216 22.134766 10.853516 C 22.144066 10.807516 22.156342 10.761497 22.169922 10.716797 C 22.183222 10.672797 22.198707 10.630791 22.216797 10.587891 C 22.235487 10.543891 22.255644 10.502891 22.277344 10.462891 C 22.299634 10.421891 22.324752 10.38285 22.351562 10.34375 C 22.378522 10.30475 22.405717 10.267822 22.435547 10.232422 C 22.466157 10.196422 22.49834 10.160406 22.53125 10.128906 C 22.56408 10.096906 22.5996 10.067063 22.634766 10.039062 L 22.638672 10.039062 C 22.674882 10.011062 22.711852 9.9839844 22.75 9.9589844 L 22.751953 9.9589844 C 22.792173 9.9329844 22.833753 9.910625 22.873047 9.890625 L 22.875 9.890625 C 22.91558 9.869625 22.95728 9.8509844 23 9.8339844 A 0.50004997 0.50004997 0 0 0 23.001953 9.8339844 C 23.045373 9.8169844 23.090393 9.8021094 23.140625 9.7871094 C 23.183445 9.7751094 23.224455 9.7657656 23.263672 9.7597656 A 0.50004997 0.50004997 0 0 0 23.271484 9.7597656 C 23.318314 9.7497656 23.366474 9.7442344 23.414062 9.7402344 C 23.465592 9.7402344 23.528078 9.7304688 23.507812 9.7304688 C 23.572333 9.7305687 23.609554 9.7304688 23.621094 9.7304688 C 23.704244 9.7434687 23.7589 9.7489062 23.785156 9.7539062 C 23.836746 9.7649062 23.881536 9.7770625 23.921875 9.7890625 C 23.971355 9.8050625 24.014405 9.8208906 24.052734 9.8378906 C 24.093514 9.8558906 24.135514 9.8773906 24.177734 9.9003906 C 24.221524 9.9243906 24.261754 9.9496094 24.298828 9.9746094 C 24.339358 10.002609 24.376198 10.029594 24.410156 10.058594 A 0.50004997 0.50004997 0 0 0 24.412109 10.058594 C 24.449469 10.089594 24.483869 10.121297 24.515625 10.154297 C 24.547995 10.188297 24.578402 10.223266 24.607422 10.259766 C 24.636572 10.296766 24.6629 10.334747 24.6875 10.373047 A 0.50004997 0.50004997 0 0 0 24.689453 10.373047 C 24.713663 10.410047 24.736353 10.452141 24.757812 10.494141 C 24.779022 10.536141 24.797823 10.578094 24.814453 10.621094 A 0.50004997 0.50004997 0 0 0 24.816406 10.621094 C 24.832776 10.663094 24.846745 10.707053 24.859375 10.751953 C 24.871875 10.796953 24.882705 10.842972 24.890625 10.888672 C 24.898825 10.935672 24.904793 10.980644 24.908203 11.027344 C 24.910403 11.060344 24.912209 11.092 24.912109 11.125 C 24.912094 11.173 24.908997 11.219025 24.904297 11.265625 C 24.899597 11.312625 24.892103 11.358597 24.882812 11.404297 C 24.873513 11.450297 24.861266 11.498269 24.847656 11.542969 C 24.834226 11.586969 24.819271 11.630028 24.800781 11.673828 C 24.782181 11.716828 24.761804 11.759828 24.740234 11.798828 C 24.717964 11.839828 24.692856 11.880822 24.666016 11.919922 C 24.639326 11.958922 24.611291 11.99685 24.582031 12.03125 C 24.555101 12.06325 24.524041 12.094859 24.488281 12.130859 A 0.50004997 0.50004997 0 0 0 24.839844 12.986328 L 29.488281 12.986328 A 0.50004997 0.50004997 0 0 0 29.988281 12.486328 L 29.988281 7.8261719 L 29.988281 5.1640625 L 29.988281 0.50585938 A 0.50004997 0.50004997 0 0 0 29.488281 0.005859375 L 24.839844 0.005859375 A 0.50004997 0.50004997 0 0 0 24.837891 0.005859375 L 24.837891 -0.001953125 L 22.179688 -0.001953125 L 17.529297 -0.001953125 z M 24.839844 0.99804688 L 28.988281 0.99804688 L 28.988281 5.15625 L 28.988281 7.8183594 L 28.988281 11.978516 L 25.75 11.978516 C 25.76916 11.928516 25.788708 11.878472 25.804688 11.826172 C 25.828177 11.749172 25.847761 11.672703 25.863281 11.595703 C 25.879121 11.517703 25.890428 11.438075 25.898438 11.359375 C 25.906537 11.279375 25.912089 11.199641 25.912109 11.119141 C 25.912236 11.062141 25.91005 11.007272 25.90625 10.951172 C 25.90045 10.871172 25.890643 10.791691 25.876953 10.712891 C 25.863393 10.633891 25.845459 10.557369 25.824219 10.480469 C 25.802859 10.404469 25.777427 10.326953 25.748047 10.251953 C 25.719237 10.176953 25.686041 10.105856 25.650391 10.035156 C 25.614791 9.9651563 25.574881 9.895925 25.53125 9.828125 L 25.529297 9.828125 C 25.486207 9.761125 25.441217 9.6984187 25.392578 9.6367188 A 0.50004997 0.50004997 0 0 0 25.390625 9.6367188 C 25.341525 9.5747188 25.289542 9.5146312 25.234375 9.4570312 A 0.50004997 0.50004997 0 0 0 25.232422 9.4570312 C 25.175802 9.3990313 25.116264 9.3450219 25.056641 9.2949219 L 25.054688 9.2949219 C 24.992718 9.2429219 24.930188 9.1959437 24.867188 9.1523438 A 0.50004997 0.50004997 0 0 0 24.865234 9.1523438 C 24.797794 9.1063437 24.731313 9.0643438 24.664062 9.0273438 A 0.50004997 0.50004997 0 0 0 24.658203 9.0273438 C 24.591193 8.9913437 24.521324 8.9553281 24.447266 8.9238281 C 24.368916 8.8898281 24.292208 8.8637969 24.220703 8.8417969 C 24.139523 8.8167969 24.061312 8.79725 23.988281 8.78125 C 23.890301 8.76025 23.82035 8.7530938 23.777344 8.7460938 C 23.6626 8.7280937 23.572186 8.7314687 23.509766 8.7304688 A 0.50004997 0.50004997 0 0 0 23.507812 8.7304688 C 23.388731 8.7304688 23.343602 8.7402344 23.373047 8.7402344 A 0.50004997 0.50004997 0 0 0 23.333984 8.7402344 C 23.257464 8.7502344 23.181241 8.7565313 23.105469 8.7695312 C 23.022149 8.7825312 22.941865 8.8002656 22.865234 8.8222656 A 0.50004997 0.50004997 0 0 0 22.859375 8.8222656 C 22.787355 8.8432656 22.713476 8.8674844 22.638672 8.8964844 C 22.563602 8.9254844 22.490088 8.9590938 22.417969 8.9960938 A 0.50004997 0.50004997 0 0 0 22.416016 8.9960938 C 22.344006 9.0330938 22.277626 9.0740344 22.212891 9.1152344 A 0.50004997 0.50004997 0 0 0 22.208984 9.1152344 C 22.142494 9.1582344 22.078875 9.2042531 22.017578 9.2519531 A 0.50004997 0.50004997 0 0 0 22.013672 9.2519531 C 21.951402 9.3019531 21.892403 9.3553562 21.835938 9.4101562 C 21.777538 9.4671563 21.721312 9.5267906 21.669922 9.5878906 C 21.618352 9.6498906 21.569812 9.7126438 21.525391 9.7773438 C 21.480281 9.8433438 21.439161 9.9113219 21.400391 9.9824219 C 21.361501 10.053422 21.327471 10.125566 21.296875 10.197266 A 0.50004997 0.50004997 0 0 0 21.294922 10.197266 C 21.264232 10.270266 21.236631 10.344075 21.212891 10.421875 C 21.189191 10.498875 21.169887 10.576697 21.154297 10.654297 C 21.138307 10.732297 21.127231 10.811025 21.119141 10.890625 C 21.111141 10.969625 21.105559 11.049106 21.105469 11.128906 C 21.105343 11.185906 21.107528 11.242828 21.111328 11.298828 C 21.117128 11.378828 21.126935 11.458309 21.140625 11.537109 C 21.154145 11.615109 21.172289 11.693231 21.193359 11.769531 C 21.213819 11.842531 21.239888 11.914728 21.267578 11.986328 L 18.029297 11.986328 L 18.029297 7.8261719 A 0.50004997 0.50004997 0 0 0 17.171875 7.4765625 C 16.907981 7.7478625 16.546032 7.9023438 16.169922 7.9023438 C 15.390015 7.9023438 14.767577 7.2776406 14.767578 6.4941406 C 14.767577 5.7107406 15.390047 5.0898438 16.169922 5.0898438 A 0.50004997 0.50004997 0 0 0 16.171875 5.0898438 C 16.548645 5.0896438 16.907727 5.2398656 17.171875 5.5097656 A 0.50004997 0.50004997 0 0 0 18.029297 5.1601562 L 18.029297 1.0019531 L 22.179688 1.0019531 L 24.839844 1.0019531 L 24.839844 0.99804688 z M 11.449219 15.732422 C 10.311305 15.784422 9.2507501 16.676031 9.1503906 17.894531 C 9.0740166 18.308331 9.1432605 18.692178 9.2773438 19.017578 L 5.5507812 19.017578 A 0.50004997 0.50004997 0 0 0 5.0507812 19.517578 L 5.0507812 23.285156 C 3.9315714 22.857156 2.5421398 23.295163 2.0273438 24.476562 C 1.3070953 25.887463 2.2531663 27.694972 3.8320312 27.888672 C 4.2512117 27.954672 4.6645455 27.878622 5.0507812 27.732422 L 5.0507812 31.501953 A 0.50004997 0.50004997 0 0 0 5.5507812 32.001953 L 10.201172 32.001953 A 0.50004997 0.50004997 0 0 0 10.535156 31.130859 C 9.8859918 30.544559 10.082789 29.262231 10.876953 28.894531 A 0.50004997 0.50004997 0 0 0 10.912109 28.875 C 11.642214 28.4639 12.741383 28.984741 12.894531 29.806641 A 0.50004997 0.50004997 0 0 0 12.898438 29.828125 C 13.0034 30.280625 12.847268 30.815266 12.513672 31.134766 A 0.50004997 0.50004997 0 0 0 12.859375 31.996094 L 17.457031 31.996094 A 0.50004997 0.50004997 0 0 0 17.541016 32.003906 L 22.191406 32.003906 A 0.50004997 0.50004997 0 0 0 22.527344 31.132812 C 21.87818 30.546613 22.073024 29.262231 22.867188 28.894531 A 0.50004997 0.50004997 0 0 0 22.902344 28.875 C 23.632448 28.4639 24.731618 28.984741 24.884766 29.806641 A 0.50004997 0.50004997 0 0 0 24.890625 29.828125 C 24.995588 30.280625 24.839455 30.815266 24.505859 31.134766 A 0.50004997 0.50004997 0 0 0 24.851562 31.996094 L 29.419922 31.996094 A 0.50004997 0.50004997 0 0 0 29.701172 31.953125 L 29.714844 31.943359 A 0.50004997 0.50004997 0 0 0 29.988281 31.386719 L 29.988281 26.835938 A 0.50004997 0.50004997 0 0 0 29.126953 26.490234 C 28.827159 26.802734 28.344439 26.965084 27.917969 26.896484 A 0.50004997 0.50004997 0 0 0 27.898438 26.896484 C 27.042746 26.796484 26.457476 25.674563 26.857422 24.914062 A 0.50004997 0.50004997 0 0 0 26.875 24.878906 C 27.226303 24.056106 28.523272 23.856166 29.117188 24.509766 A 0.50004997 0.50004997 0 0 0 29.988281 24.173828 L 29.988281 19.748047 L 29.859375 19.855469 A 0.50004997 0.50004997 0 0 0 29.5 19.007812 L 25.742188 19.007812 C 26.17022 17.888813 25.735688 16.499969 24.556641 15.980469 C 24.198264 15.796669 23.81543 15.715322 23.439453 15.732422 C 22.30295 15.783422 21.245212 16.674525 21.142578 17.890625 C 21.064878 18.306025 21.133078 18.691078 21.267578 19.017578 L 17.591797 19.017578 A 0.50004997 0.50004997 0 0 0 17.507812 19.011719 L 13.75 19.011719 C 14.17803 17.892719 13.7455 16.503875 12.566406 15.984375 C 12.207525 15.799975 11.825812 15.719228 11.449219 15.736328 L 11.449219 15.732422 z M 11.494141 16.751953 C 11.711997 16.7347 11.928076 16.769569 12.121094 16.871094 A 0.50004997 0.50004997 0 0 0 12.15625 16.890625 C 12.979265 17.245025 13.177204 18.547078 12.523438 19.142578 A 0.50004997 0.50004997 0 0 0 12.859375 20.011719 L 17.041016 20.011719 L 17.041016 23.285156 C 15.923751 22.858856 14.537925 23.295156 14.021484 24.472656 C 13.297409 25.884056 14.243857 27.694772 15.824219 27.888672 C 16.242488 27.953672 16.655453 27.888675 17.041016 27.734375 L 17.041016 30.996094 L 13.726562 30.996094 C 13.899608 30.555594 13.979849 30.086634 13.873047 29.615234 C 13.582185 28.095534 11.799998 27.251647 10.441406 27.998047 C 9.3033215 28.536847 8.8818639 29.8991 9.3027344 31 L 6.0507812 31 L 6.0507812 26.839844 A 0.50004997 0.50004997 0 0 0 5.1894531 26.494141 C 4.8896592 26.806641 4.4069389 26.968991 3.9804688 26.900391 A 0.50004997 0.50004997 0 0 0 3.9589844 26.900391 C 3.1032943 26.800391 2.5199767 25.678469 2.9199219 24.917969 A 0.50004997 0.50004997 0 0 0 2.9355469 24.882812 C 3.2868506 24.060013 4.5857728 23.860072 5.1796875 24.513672 A 0.50004997 0.50004997 0 0 0 6.0507812 24.177734 L 6.0507812 20.019531 L 10.154297 20.019531 A 0.50004997 0.50004997 0 0 0 10.552734 19.216797 C 10.354645 18.956997 10.070956 18.334753 10.126953 18.064453 A 0.50004997 0.50004997 0 0 0 10.134766 17.996094 C 10.178476 17.331969 10.840572 16.803712 11.494141 16.751953 z M 23.486328 16.753906 C 23.704184 16.736653 23.920263 16.771522 24.113281 16.873047 L 24.113281 16.869141 A 0.50004997 0.50004997 0 0 0 24.148438 16.886719 C 24.971453 17.241119 25.167439 18.543172 24.513672 19.138672 A 0.50004997 0.50004997 0 0 0 24.851562 20.007812 L 28.988281 20.007812 L 28.988281 23.285156 C 27.870602 22.858556 26.48287 23.295156 25.966797 24.472656 C 25.243114 25.884056 26.189333 27.694772 27.769531 27.888672 C 28.188655 27.954672 28.602088 27.878622 28.988281 27.732422 L 28.988281 30.998047 L 25.71875 30.998047 C 25.891795 30.557547 25.972036 30.088588 25.865234 29.617188 C 25.574373 28.097487 23.792186 27.2536 22.433594 28 C 21.295026 28.539 20.873167 29.902806 21.294922 31.003906 L 18.041016 31.003906 L 18.041016 26.841797 A 0.50004997 0.50004997 0 0 0 17.181641 26.496094 C 16.881847 26.808594 16.399127 26.970944 15.972656 26.902344 A 0.50004997 0.50004997 0 0 0 15.951172 26.902344 C 15.095482 26.802344 14.510211 25.680422 14.910156 24.919922 A 0.50004997 0.50004997 0 0 0 14.927734 24.884766 C 15.279038 24.061966 16.57796 23.862025 17.171875 24.515625 A 0.50004997 0.50004997 0 0 0 18.041016 24.179688 L 18.041016 20.021484 L 22.146484 20.021484 A 0.50004997 0.50004997 0 0 0 22.542969 19.21875 C 22.34488 18.95895 22.061191 18.336706 22.117188 18.066406 A 0.50004997 0.50004997 0 0 0 22.126953 17.998047 C 22.170663 17.333922 22.83276 16.805666 23.486328 16.753906 z " color="#000" font-family="sans-serif" font-weight="400" overflow="visible" white-space="normal" style="line-height:normal;text-indent:0;text-align:start;text-decoration-line:none;text-decoration-style:solid;text-decoration-color:#000;text-transform:none;block-progression:tb;isolation:auto;mix-blend-mode:normal"/></svg>