<svg xmlns="http://www.w3.org/2000/svg" width="32" height="32" viewBox="0 0 32 32"><g transform="translate(260.388 -1260.862)"><path style="isolation:auto;mix-blend-mode:normal" fill="#f9b536" d="m -242.38002,1279.8671 c -1.54965,0 -3.0993,0 -4.64895,0 0.93622,-0.8528 0.67054,-2.5743 -0.50545,-3.0806 -1.11449,-0.5861 -2.63386,0.2661 -2.7173,1.5338 -0.11659,0.5628 0.27055,1.233 0.51752,1.5569 -1.53469,0 -3.06938,0 -4.60407,0 0,1.5524 0,3.1047 0,4.6571 -0.85137,-0.937 -2.57143,-0.6678 -3.07378,0.5087 -0.5729,1.0893 0.19943,2.5681 1.42514,2.7113 0.59642,0.096 1.23056,-0.1179 1.64864,-0.5536 0,1.5538 0,3.1076 0,4.6614 1.55001,0 3.10001,0 4.65002,0 -0.93112,-0.8409 -0.67256,-2.5342 0.46586,-3.0614 1.0472,-0.5896 2.5001,0.098 2.7196,1.2761 0.1464,0.6312 -0.0573,1.3306 -0.52602,1.7795 1.54965,0 3.0993,0 4.64896,0" color="#000" overflow="visible"/><path style="isolation:auto;mix-blend-mode:normal" fill="#105286" d="M-230.4004 1291.8621l0-4.6614c-.41807.4357-1.05221.6496-1.64863.5536-1.22571-.1432-1.99804-1.622-1.42514-2.7113.50234-1.1765 2.2224-1.4457 3.07377-.5087l0-4.6571.0119-.01-4.64895 0c.93622-.8528.67055-2.5743-.50545-3.0806-1.11448-.5861-2.63386.2661-2.7173 1.5338-.11659.5628.27055 1.233.51752 1.5569l-4.60407 0 0 4.6571c-.85137-.937-2.57143-.6678-3.07378.5087-.5729 1.0893.19944 2.5681 1.42515 2.7113.59641.096 1.23056-.1179 1.64863-.5536l0 4.6614 4.65002 0c-.93112-.8409-.67256-2.5342.46586-3.0614 1.0472-.5896 2.5001.098 2.7196 1.2761.1464.6312-.0574 1.3306-.52602 1.7795l4.64896 0zM-230.40056 1265.5152l0-4.6572-4.64895 0-2.65929.001-4.65002 0 0 4.6571c-.35798-.3657-.84774-.5716-1.3589-.5714-1.05071 0-1.90248.8537-1.90248 1.9067 0 1.0531.85177 1.9067 1.90248 1.9067.51178 0 1.00162-.2083 1.3589-.5756l0 4.6614 4.65002 0c-.0122-.011-.0242-.023-.0361-.034-.0441-.045-.0859-.093-.12527-.1426-.0394-.05-.0762-.1017-.11041-.1553-.0342-.053-.0658-.1084-.0945-.165-.0287-.057-.0546-.115-.0775-.1745-.0232-.059-.0434-.1196-.0605-.1809-.0169-.061-.0307-.1227-.0414-.1851-.0109-.063-.0187-.1259-.0234-.1894-.003-.045-.004-.09-.004-.1351.00002-.064.003-.1272.01-.1905.006-.063.016-.126.0287-.1883.0125-.062.0281-.1242.0467-.1851.0186-.061.0402-.1203.0648-.1788.0247-.058.0524-.1156.0828-.1713.0305-.056.0638-.1102.0998-.1628.0357-.052.074-.1026.11466-.1511.0411-.049.0847-.096.13058-.1404.0453-.044.0928-.086.14226-.1256.0498-.039.10152-.076.155-.1106.0533-.034.10817-.066.16456-.095.0567-.029.11481-.055.17411-.078.0591-.023.11935-.043.18048-.061.0608-.017.1225-.031.18472-.041.0626-.011.12563-.019.18898-.024.0449 0 .0898-.01.13483-.01.0635.0001.12689 0 .19003.01.0631.01.1258.016.18792.029.0623.013.12396.028.18472.047.0605.019.12002.04.17836.065.0583.025.11536.053.17093.083.0558.031.10998.064.16243.1.0521.036.10244.074.15075.115.0488.041.0956.084.14014.1297.0441.046.0859.094.12527.1437.0394.05.0762.1017.11042.1554.0342.053.0657.1083.0945.1648.0287.057.0546.1151.0775.1745.0232.059.0434.1197.0605.181.0169.061.0307.1227.0414.1851.0109.063.0187.1259.0234.1894.003.045.005.09.004.1351-.00002.064-.003.1272-.01.1904-.006.063-.016.1261-.0286.1883-.0125.062-.0281.1243-.0467.1853-.0186.061-.0402.1202-.0648.1787-.0247.058-.0524.1156-.0828.1713-.0305.056-.0638.1102-.0998.1628-.0357.052-.074.1026-.11466.151-.0396.047-.0814.091-.12527.1341l4.64895 0 0-4.6614z" color="#000" overflow="visible"/></g></svg>