<svg xmlns="http://www.w3.org/2000/svg" xmlns:xlink="http://www.w3.org/1999/xlink" width="32" height="32" viewBox="0 0 32 32"><defs><linearGradient id="a"><stop offset="0" stop-color="#000092"/><stop offset="1" stop-color="#ff00f3"/></linearGradient><linearGradient id="b" x1="5" x2="25" y1="16" y2="16" gradientUnits="userSpaceOnUse" xlink:href="#a"/></defs><path fill="url(#b)" d="M 9.2050781 1.9921875 A 0.50004997 0.50004997 0 0 0 8.7050781 2.4921875 C 8.7050781 3.2448875 8.3113441 4.0559687 7.6953125 4.6679688 C 7.0792809 5.2799688 6.2608874 5.6738281 5.5 5.6738281 A 0.50004997 0.50004997 0 0 0 5 6.1738281 L 5 20.128906 C 5 22.860506 7.2753211 25.279141 9.7109375 27.056641 C 10.928746 27.945341 12.202736 28.673794 13.3125 29.183594 C 14.327823 29.650101 15.154224 29.935409 15.818359 29.974609 A 0.50005 0.50005 0 0 0 16.191406 29.970703 C 16.845347 29.915038 17.671764 29.625617 18.6875 29.15625 C 19.795929 28.64395 21.071436 27.917903 22.289062 27.033203 C 24.724315 25.264003 27 22.860506 27 20.128906 L 27 6.1738281 A 0.50004997 0.50004997 0 0 0 26.5 5.6738281 C 25.739113 5.6738281 24.920718 5.2799688 24.304688 4.6679688 C 23.688655 4.0559687 23.294922 3.2448875 23.294922 2.4921875 A 0.50004997 0.50004997 0 0 0 22.794922 1.9921875 L 16.041016 1.9921875 A 0.50005 0.50005 0 0 0 16 1.9921875 L 15.992188 1.9921875 L 9.2050781 1.9921875 z M 9.5898438 2.9921875 L 15.5 2.9921875 L 15.5 15.492188 L 6 15.492188 L 6 6.5585938 C 6.8983789 6.4234938 7.7499314 6.0252062 8.4003906 5.3789062 C 9.0502984 4.7333062 9.4530998 3.8860875 9.5898438 2.9921875 z M 16.5 2.9921875 L 22.410156 2.9921875 C 22.5469 3.8860875 22.949702 4.7333063 23.599609 5.3789062 C 24.250068 6.0252063 25.101621 6.4234938 26 6.5585938 L 26 15.492188 L 16.5 15.492188 L 16.5 2.9921875 z M 6 16.492188 L 15.5 16.492188 L 15.5 28.90625 C 15.061795 28.801124 14.434459 28.596836 13.730469 28.273438 C 12.685361 27.793238 11.459812 27.093847 10.300781 26.248047 C 7.9827204 24.556347 6 22.279106 6 20.128906 L 6 16.492188 z M 16.5 16.492188 L 26 16.492188 L 26 20.128906 C 26 22.279106 24.019595 24.540309 21.701172 26.224609 C 20.54196 27.066809 19.31402 27.764447 18.267578 28.248047 C 17.565971 28.572286 16.941901 28.784072 16.5 28.896484 L 16.5 16.492188 z " color="#000" font-family="sans-serif" font-weight="400" overflow="visible" white-space="normal" style="line-height:normal;text-indent:0;text-align:start;text-decoration-line:none;text-decoration-style:solid;text-decoration-color:#000;text-transform:none;block-progression:tb;isolation:auto;mix-blend-mode:normal"/></svg>
